<svg xmlns="http://www.w3.org/2000/svg" viewBox="0 0 18.97 34" width="18.972px" height="34px"><defs><style>.cls-1{fill:#fff;}</style></defs><title>facebook</title><g id="レイヤー_2" data-name="レイヤー 2"><g id="FACEBOOK"><path class="cls-1" d="M12.22,17.37V34H5.83V17.41c-.26,0-.46,0-.66,0H.52c-.25,0-.52,0-.52-.35,0-1.72,0-3.44,0-5.2.28,0,.5,0,.73,0,1.49,0,3,0,4.48,0,.47,0,.61-.12.63-.61a31.11,31.11,0,0,1,.28-4.91A7.59,7.59,0,0,1,13.62,0c1.61,0,3.22,0,4.82,0,.15,0,.3,0,.52,0,0,.61,0,1.2,0,1.78,0,1.19,0,2.37,0,3.56,0,.4-.12.53-.53.53-1.49,0-3,0-4.48,0-.85,0-1.56.42-1.61,1.23-.11,1.52,0,3,0,4.64H13c1.78,0,3.56,0,5.34,0,.48,0,.68.1.66.63,0,1.47,0,2.95,0,4.42,0,.43-.14.56-.56.56-1.82,0-3.64,0-5.45,0Z"/></g></g></svg>
