<svg xmlns="http://www.w3.org/2000/svg" viewBox="0 0 33.58 33.58" width="33.581px" height="33.581px"><defs><style>.cls-1{fill:#fff;}</style></defs><title>Instagram</title><g id="レイヤー_2" data-name="レイヤー 2"><g id="share"><path class="cls-1" d="M16.79,3c4.48,0,5,0,6.78.1a9.29,9.29,0,0,1,3.12.58A5.2,5.2,0,0,1,28.62,5a5.2,5.2,0,0,1,1.26,1.93A9.29,9.29,0,0,1,30.46,10c.08,1.77.1,2.3.1,6.78s0,5-.1,6.78a9.29,9.29,0,0,1-.58,3.12,5.56,5.56,0,0,1-3.19,3.19,9.29,9.29,0,0,1-3.12.58c-1.77.08-2.3.1-6.78.1s-5,0-6.78-.1a9.29,9.29,0,0,1-3.12-.58A5.2,5.2,0,0,1,5,28.62,5.2,5.2,0,0,1,3.7,26.69a9.29,9.29,0,0,1-.58-3.12C3,21.8,3,21.27,3,16.79s0-5,.1-6.78A9.29,9.29,0,0,1,3.7,6.89,5.2,5.2,0,0,1,5,5,5.2,5.2,0,0,1,6.89,3.7,9.29,9.29,0,0,1,10,3.12C11.78,3,12.31,3,16.79,3m0-3c-4.56,0-5.13,0-6.92.1A12.32,12.32,0,0,0,5.79.88a8.23,8.23,0,0,0-3,1.94,8.23,8.23,0,0,0-1.94,3A12.32,12.32,0,0,0,.1,9.87C0,11.66,0,12.23,0,16.79s0,5.13.1,6.92a12.32,12.32,0,0,0,.78,4.08,8.23,8.23,0,0,0,1.94,3,8.23,8.23,0,0,0,3,1.94,12.32,12.32,0,0,0,4.08.78c1.79.08,2.36.1,6.92.1s5.13,0,6.92-.1a12.32,12.32,0,0,0,4.08-.78,8.59,8.59,0,0,0,4.91-4.91,12.32,12.32,0,0,0,.78-4.08c.08-1.79.1-2.36.1-6.92s0-5.13-.1-6.92a12.32,12.32,0,0,0-.78-4.08,8.23,8.23,0,0,0-1.94-3,8.23,8.23,0,0,0-3-1.94A12.32,12.32,0,0,0,23.71.1C21.92,0,21.35,0,16.79,0Z"/><path class="cls-1" d="M16.79,8.17a8.62,8.62,0,1,0,8.62,8.62A8.62,8.62,0,0,0,16.79,8.17Zm0,14.22a5.6,5.6,0,1,1,5.6-5.6A5.6,5.6,0,0,1,16.79,22.39Z"/><circle class="cls-1" cx="25.75" cy="7.83" r="2.01"/></g></g></svg>
